<svg xmlns="http://www.w3.org/2000/svg" width="227" height="126" fill="none" viewBox="0 0 227 126">
  <path fill="#2BFCB3" fill-rule="evenodd" d="M109.743 96.231c.876-1.001 2.503-1.126 3.629-.25 9.26 7.758 21.148 12.388 34.288 12.388 13.014 0 25.027-4.63 34.287-12.388 1.127-.876 2.628-.876 3.629.25l8.51 9.26c.876 1.001.876 2.628-.125 3.504-12.389 10.512-28.532 16.894-46.176 16.894-17.644 0-33.662-6.382-46.176-16.894-1.001-.876-1.126-2.503-.125-3.504l8.259-9.26Z" clip-rule="evenodd"/>
  <path fill="#3D24FA" d="M12.89 0a2.51 2.51 0 0 1 2.502 2.503v29.532c4.505-4.755 10.386-6.882 17.394-6.882 15.767 0 28.406 14.015 28.406 31.034 0 17.144-12.639 31.034-30.533 31.034C12.639 87.22 0 73.33 0 56.187V2.503A2.51 2.51 0 0 1 2.503 0h10.386Zm17.769 39.168c-8.51 0-15.392 7.633-15.392 17.144 0 9.26 6.882 16.768 15.392 16.768 8.509 0 15.392-7.258 15.392-16.768 0-9.886-6.883-17.144-15.392-17.144ZM98.48 24.777c13.641 0 25.153 8.259 28.657 23.025.25 1.126-.375 2.253-1.502 2.753L85.592 67.45c3.003 4.004 7.508 6.382 12.639 6.382 4.504 0 9.009-1.752 11.762-5.632.501-.75 1.377-1.251 2.253-1.251h11.387c1.627 0 2.878 1.627 2.253 3.129-4.255 10.386-14.141 17.143-27.53 17.143-16.769 0-30.409-13.89-30.409-31.034.125-17.269 13.765-31.41 30.534-31.41Zm-.625 13.64c-7.508 0-13.765 5.256-15.517 13.264-.375 1.752 1.502 3.129 3.129 2.378l21.023-9.01c1.501-.626 2.002-2.628.625-3.629-2.503-1.877-5.756-3.003-9.26-3.003Zm62.318 47.176c1.251 0 2.252-1.126 2.252-2.377V74.33c0-1.502-1.251-2.628-2.628-2.628-5.756-.375-8.634-3.629-8.634-10.887V2.752A2.51 2.51 0 0 0 148.66.25h-10.386a2.51 2.51 0 0 0-2.503 2.502v58.064c-.125 15.517 8.384 25.528 24.402 24.777Zm37.045-60.816c16.393 0 29.783 13.515 29.783 31.284 0 17.77-13.39 31.034-29.783 31.034s-29.657-13.264-29.657-31.034 13.264-31.284 29.657-31.284Zm.125 14.516c-8.134 0-14.641 7.133-14.641 17.52 0 10.01 6.632 17.018 14.641 17.018 8.134 0 14.641-6.883 14.641-17.019 0-10.386-6.632-17.52-14.641-17.52Z"/>
</svg>
