<svg   id="chart"   width="1000"   height="500"   viewBox="0 0 1000 500"   xmlns="http://www.w3.org/2000/svg" >      <path d="M 0,117.54966156083991 C 33.4,147.01630265635634 100.19999999999999,247.86659362493145 167,264.8828670384222 C 233.8,281.89914045191296 267.2,193.4868388767495 334,202.63102862829362 C 400.8,211.77521837983775 434.2,276.57274256423966 501,310.6038157961429 C 567.8,344.63488902804613 601.2,382.33042590600013 668,372.78639478780974 C 734.8,363.24236366961935 768.2,280.8773995769902 835,262.88366020519106 C 901.8,244.88992083339195 968.6,278.8308903840896 1002,282.81769792881425,L 1000 500,L 0 500Z" fill="#f7f7f71a" />   <path d="M 0,117.54966156083991 C 33.4,147.01630265635634 100.19999999999999,247.86659362493145 167,264.8828670384222 C 233.8,281.89914045191296 267.2,193.4868388767495 334,202.63102862829362 C 400.8,211.77521837983775 434.2,276.57274256423966 501,310.6038157961429 C 567.8,344.63488902804613 601.2,382.33042590600013 668,372.78639478780974 C 734.8,363.24236366961935 768.2,280.8773995769902 835,262.88366020519106 C 901.8,244.88992083339195 968.6,278.8308903840896 1002,282.81769792881425" fill="none" stroke="#f7f7f7" stroke-width="4px" />   <g>   		<circle cx="0" cy="117.54966156083991" r="8" fill="#f7f7f7" />,		<circle cx="167" cy="264.8828670384222" r="8" fill="#f7f7f7" />,		<circle cx="334" cy="202.63102862829362" r="8" fill="#f7f7f7" />,		<circle cx="501" cy="310.6038157961429" r="8" fill="#f7f7f7" />,		<circle cx="668" cy="372.78639478780974" r="8" fill="#f7f7f7" />,		<circle cx="835" cy="262.88366020519106" r="8" fill="#f7f7f7" />,		<circle cx="1002" cy="282.81769792881425" r="8" fill="#f7f7f7" />   </g> </svg>