<svg width="100%" height="100%" id="svg" viewBox="0 0 1440 500" xmlns="http://www.w3.org/2000/svg" class="transition duration-300 ease-in-out delay-150"><path d="M 0,500 C 0,500 0,125 0,125 C 113.53110047846889,105.50717703349282 227.06220095693777,86.01435406698565 327,90 C 426.9377990430622,93.98564593301435 513.2822966507177,121.44976076555025 588,127 C 662.7177033492823,132.55023923444975 725.8086124401914,116.18660287081339 832,102 C 938.1913875598086,87.81339712918661 1087.4832535885168,75.80382775119618 1196,80 C 1304.5167464114832,84.19617224880382 1372.2583732057415,104.5980861244019 1440,125 C 1440,125 1440,500 1440,500 Z" stroke="none" stroke-width="0" fill="#3c83f6" fill-opacity="0.4" class="transition-all duration-300 ease-in-out delay-150 path-0"></path><path d="M 0,500 C 0,500 0,250 0,250 C 78.64114832535884,266.7368421052631 157.28229665071768,283.4736842105263 264,267 C 370.7177033492823,250.5263157894737 505.5119617224882,200.84210526315792 605,204 C 704.4880382775118,207.15789473684208 768.66985645933,263.1578947368421 867,276 C 965.33014354067,288.8421052631579 1097.8086124401914,258.52631578947364 1199,247 C 1300.1913875598086,235.47368421052633 1370.0956937799042,242.73684210526318 1440,250 C 1440,250 1440,500 1440,500 Z" stroke="none" stroke-width="0" fill="#3c83f6" fill-opacity="0.53" class="transition-all duration-300 ease-in-out delay-150 path-1"></path><path d="M 0,500 C 0,500 0,375 0,375 C 125.2153110047847,387.7464114832536 250.4306220095694,400.49282296650716 335,395 C 419.5693779904306,389.50717703349284 463.4928229665072,365.77511961722496 561,346 C 658.5071770334928,326.22488038277504 809.5980861244018,310.4066985645933 916,329 C 1022.4019138755982,347.5933014354067 1084.1148325358852,400.5980861244019 1164,414 C 1243.8851674641148,427.4019138755981 1341.9425837320573,401.20095693779905 1440,375 C 1440,375 1440,500 1440,500 Z" stroke="none" stroke-width="0" fill="#3c83f6" fill-opacity="1" class="transition-all duration-300 ease-in-out delay-150 path-2"></path></svg>